<mxfile host="app.diagrams.net" modified="2023-04-13T17:13:55.229Z" agent="Mozilla/5.0 (Windows NT 10.0; Win64; x64) AppleWebKit/537.36 (KHTML, like Gecko) Chrome/111.0.0.0 Safari/537.36" etag="V_D4Dfks0W2wBUzcaIHJ" version="21.1.5" type="github">
  <diagram name="Page-1" id="7KaI7PDGXMlLVLGPTViL">
    <mxGraphModel dx="880" dy="452" grid="1" gridSize="10" guides="1" tooltips="1" connect="1" arrows="1" fold="1" page="1" pageScale="1" pageWidth="827" pageHeight="1169" math="0" shadow="0">
      <root>
        <mxCell id="0" />
        <mxCell id="1" parent="0" />
        <mxCell id="FfkFVL6gK5WUMpAvYzcA-1" value="4.1&lt;br style=&quot;font-size: 14px;&quot;&gt;lihat data latih" style="ellipse;whiteSpace=wrap;html=1;aspect=fixed;fontFamily=Times New Roman;fontSize=14;fontStyle=1" vertex="1" parent="1">
          <mxGeometry x="320" y="40" width="80" height="80" as="geometry" />
        </mxCell>
        <mxCell id="FfkFVL6gK5WUMpAvYzcA-2" value="4.2&lt;br style=&quot;font-size: 14px;&quot;&gt;tambah data latih" style="ellipse;whiteSpace=wrap;html=1;aspect=fixed;fontFamily=Times New Roman;fontSize=14;fontStyle=1" vertex="1" parent="1">
          <mxGeometry x="320" y="160" width="80" height="80" as="geometry" />
        </mxCell>
        <mxCell id="FfkFVL6gK5WUMpAvYzcA-3" value="4.3&lt;br style=&quot;font-size: 14px;&quot;&gt;edit data latih" style="ellipse;whiteSpace=wrap;html=1;aspect=fixed;fontFamily=Times New Roman;fontSize=14;fontStyle=1" vertex="1" parent="1">
          <mxGeometry x="320" y="280" width="80" height="80" as="geometry" />
        </mxCell>
        <mxCell id="FfkFVL6gK5WUMpAvYzcA-4" value="4.4&lt;br style=&quot;font-size: 14px;&quot;&gt;cari data latih" style="ellipse;whiteSpace=wrap;html=1;aspect=fixed;fontFamily=Times New Roman;fontSize=14;fontStyle=1" vertex="1" parent="1">
          <mxGeometry x="320" y="400" width="80" height="80" as="geometry" />
        </mxCell>
        <mxCell id="FfkFVL6gK5WUMpAvYzcA-5" value="3.5&lt;br style=&quot;font-size: 14px;&quot;&gt;hapus data latih" style="ellipse;whiteSpace=wrap;html=1;aspect=fixed;fontFamily=Times New Roman;fontSize=14;fontStyle=1" vertex="1" parent="1">
          <mxGeometry x="320" y="520" width="80" height="80" as="geometry" />
        </mxCell>
        <mxCell id="FfkFVL6gK5WUMpAvYzcA-6" value="admin" style="rounded=0;whiteSpace=wrap;html=1;fontFamily=Times New Roman;fontSize=14;fontStyle=1" vertex="1" parent="1">
          <mxGeometry x="40" y="250" width="120" height="20" as="geometry" />
        </mxCell>
        <mxCell id="FfkFVL6gK5WUMpAvYzcA-8" value="data_latih" style="shape=partialRectangle;whiteSpace=wrap;html=1;left=0;right=0;fillColor=none;fontFamily=Times New Roman;fontSize=14;" vertex="1" parent="1">
          <mxGeometry x="490" y="250" width="120" height="20" as="geometry" />
        </mxCell>
        <mxCell id="FfkFVL6gK5WUMpAvYzcA-9" value="data latih" style="endArrow=classic;html=1;rounded=0;exitX=0.25;exitY=0;exitDx=0;exitDy=0;entryX=0;entryY=0;entryDx=0;entryDy=0;fontFamily=Times New Roman;fontSize=14;" edge="1" parent="1" source="FfkFVL6gK5WUMpAvYzcA-6" target="FfkFVL6gK5WUMpAvYzcA-1">
          <mxGeometry x="0.2095" y="2" width="50" height="50" relative="1" as="geometry">
            <mxPoint x="120" y="180" as="sourcePoint" />
            <mxPoint x="170" y="130" as="targetPoint" />
            <Array as="points">
              <mxPoint x="70" y="52" />
            </Array>
            <mxPoint as="offset" />
          </mxGeometry>
        </mxCell>
        <mxCell id="FfkFVL6gK5WUMpAvYzcA-10" value="data latih" style="endArrow=classic;html=1;rounded=0;exitX=0;exitY=1;exitDx=0;exitDy=0;entryX=0.417;entryY=0;entryDx=0;entryDy=0;entryPerimeter=0;fontFamily=Times New Roman;fontSize=14;" edge="1" parent="1" source="FfkFVL6gK5WUMpAvYzcA-1" target="FfkFVL6gK5WUMpAvYzcA-6">
          <mxGeometry x="-0.1527" y="1" width="50" height="50" relative="1" as="geometry">
            <mxPoint x="230" y="190" as="sourcePoint" />
            <mxPoint x="90" y="240" as="targetPoint" />
            <Array as="points">
              <mxPoint x="90" y="110" />
            </Array>
            <mxPoint x="-1" as="offset" />
          </mxGeometry>
        </mxCell>
        <mxCell id="FfkFVL6gK5WUMpAvYzcA-11" value="data latih" style="endArrow=classic;html=1;rounded=0;exitX=0.617;exitY=-0.025;exitDx=0;exitDy=0;exitPerimeter=0;entryX=0;entryY=0;entryDx=0;entryDy=0;fontFamily=Times New Roman;fontSize=14;" edge="1" parent="1" source="FfkFVL6gK5WUMpAvYzcA-6" target="FfkFVL6gK5WUMpAvYzcA-2">
          <mxGeometry width="50" height="50" relative="1" as="geometry">
            <mxPoint x="200" y="180" as="sourcePoint" />
            <mxPoint x="250" y="130" as="targetPoint" />
            <Array as="points">
              <mxPoint x="114" y="172" />
            </Array>
          </mxGeometry>
        </mxCell>
        <mxCell id="FfkFVL6gK5WUMpAvYzcA-12" value="data latih" style="endArrow=classic;html=1;rounded=0;exitX=0;exitY=1;exitDx=0;exitDy=0;entryX=0.75;entryY=0;entryDx=0;entryDy=0;fontFamily=Times New Roman;fontSize=14;" edge="1" parent="1" source="FfkFVL6gK5WUMpAvYzcA-2" target="FfkFVL6gK5WUMpAvYzcA-6">
          <mxGeometry width="50" height="50" relative="1" as="geometry">
            <mxPoint x="250" y="290" as="sourcePoint" />
            <mxPoint x="300" y="240" as="targetPoint" />
            <Array as="points">
              <mxPoint x="130" y="228" />
            </Array>
          </mxGeometry>
        </mxCell>
        <mxCell id="FfkFVL6gK5WUMpAvYzcA-13" value="data latih" style="endArrow=classic;html=1;rounded=0;exitX=0.25;exitY=0;exitDx=0;exitDy=0;entryX=1;entryY=1;entryDx=0;entryDy=0;fontFamily=Times New Roman;fontSize=14;" edge="1" parent="1" source="FfkFVL6gK5WUMpAvYzcA-8" target="FfkFVL6gK5WUMpAvYzcA-2">
          <mxGeometry width="50" height="50" relative="1" as="geometry">
            <mxPoint x="460" y="210" as="sourcePoint" />
            <mxPoint x="510" y="160" as="targetPoint" />
            <Array as="points">
              <mxPoint x="520" y="228" />
            </Array>
          </mxGeometry>
        </mxCell>
        <mxCell id="FfkFVL6gK5WUMpAvYzcA-14" value="data latih" style="endArrow=classic;html=1;rounded=0;exitX=1;exitY=0;exitDx=0;exitDy=0;entryX=0.364;entryY=-0.014;entryDx=0;entryDy=0;entryPerimeter=0;fontFamily=Times New Roman;fontSize=14;" edge="1" parent="1" source="FfkFVL6gK5WUMpAvYzcA-2" target="FfkFVL6gK5WUMpAvYzcA-8">
          <mxGeometry width="50" height="50" relative="1" as="geometry">
            <mxPoint x="480" y="160" as="sourcePoint" />
            <mxPoint x="530" y="110" as="targetPoint" />
            <Array as="points">
              <mxPoint x="534" y="170" />
            </Array>
          </mxGeometry>
        </mxCell>
        <mxCell id="FfkFVL6gK5WUMpAvYzcA-17" value="data latih" style="endArrow=classic;html=1;rounded=0;exitX=0.65;exitY=0;exitDx=0;exitDy=0;exitPerimeter=0;entryX=1;entryY=1;entryDx=0;entryDy=0;fontFamily=Times New Roman;fontSize=14;" edge="1" parent="1" source="FfkFVL6gK5WUMpAvYzcA-8" target="FfkFVL6gK5WUMpAvYzcA-1">
          <mxGeometry x="0.4265" y="-1" width="50" height="50" relative="1" as="geometry">
            <mxPoint x="580" y="140" as="sourcePoint" />
            <mxPoint x="630" y="90" as="targetPoint" />
            <Array as="points">
              <mxPoint x="570" y="140" />
              <mxPoint x="570" y="108" />
            </Array>
            <mxPoint as="offset" />
          </mxGeometry>
        </mxCell>
        <mxCell id="FfkFVL6gK5WUMpAvYzcA-18" value="data latih" style="endArrow=classic;html=1;rounded=0;exitX=1;exitY=0;exitDx=0;exitDy=0;entryX=0.85;entryY=-0.025;entryDx=0;entryDy=0;entryPerimeter=0;fontFamily=Times New Roman;fontSize=14;" edge="1" parent="1" source="FfkFVL6gK5WUMpAvYzcA-1" target="FfkFVL6gK5WUMpAvYzcA-8">
          <mxGeometry x="-0.2949" y="-2" width="50" height="50" relative="1" as="geometry">
            <mxPoint x="530" y="120" as="sourcePoint" />
            <mxPoint x="580" y="70" as="targetPoint" />
            <Array as="points">
              <mxPoint x="592" y="50" />
            </Array>
            <mxPoint x="1" as="offset" />
          </mxGeometry>
        </mxCell>
        <mxCell id="FfkFVL6gK5WUMpAvYzcA-19" value="data latih" style="endArrow=classic;html=1;rounded=0;exitX=0.75;exitY=1;exitDx=0;exitDy=0;entryX=0;entryY=0;entryDx=0;entryDy=0;fontFamily=Times New Roman;fontSize=14;" edge="1" parent="1" source="FfkFVL6gK5WUMpAvYzcA-6" target="FfkFVL6gK5WUMpAvYzcA-3">
          <mxGeometry width="50" height="50" relative="1" as="geometry">
            <mxPoint x="240" y="310" as="sourcePoint" />
            <mxPoint x="290" y="260" as="targetPoint" />
            <Array as="points">
              <mxPoint x="130" y="292" />
            </Array>
          </mxGeometry>
        </mxCell>
        <mxCell id="FfkFVL6gK5WUMpAvYzcA-20" value="data latih" style="endArrow=classic;html=1;rounded=0;entryX=0.608;entryY=1.05;entryDx=0;entryDy=0;entryPerimeter=0;exitX=0;exitY=1;exitDx=0;exitDy=0;fontFamily=Times New Roman;fontSize=14;" edge="1" parent="1" source="FfkFVL6gK5WUMpAvYzcA-3" target="FfkFVL6gK5WUMpAvYzcA-6">
          <mxGeometry width="50" height="50" relative="1" as="geometry">
            <mxPoint x="120" y="360" as="sourcePoint" />
            <mxPoint x="170" y="310" as="targetPoint" />
            <Array as="points">
              <mxPoint x="113" y="350" />
            </Array>
          </mxGeometry>
        </mxCell>
        <mxCell id="FfkFVL6gK5WUMpAvYzcA-21" value="data latih" style="endArrow=classic;html=1;rounded=0;exitX=1.013;exitY=0.338;exitDx=0;exitDy=0;entryX=0.25;entryY=1;entryDx=0;entryDy=0;exitPerimeter=0;fontFamily=Times New Roman;fontSize=14;" edge="1" parent="1" source="FfkFVL6gK5WUMpAvYzcA-3" target="FfkFVL6gK5WUMpAvYzcA-8">
          <mxGeometry x="-0.2439" width="50" height="50" relative="1" as="geometry">
            <mxPoint x="580" y="360" as="sourcePoint" />
            <mxPoint x="630" y="310" as="targetPoint" />
            <Array as="points">
              <mxPoint x="520" y="307" />
            </Array>
            <mxPoint as="offset" />
          </mxGeometry>
        </mxCell>
        <mxCell id="FfkFVL6gK5WUMpAvYzcA-22" value="data latih" style="endArrow=classic;html=1;rounded=0;entryX=0.938;entryY=0.75;entryDx=0;entryDy=0;entryPerimeter=0;exitX=0.367;exitY=1;exitDx=0;exitDy=0;exitPerimeter=0;fontFamily=Times New Roman;fontSize=14;" edge="1" parent="1" source="FfkFVL6gK5WUMpAvYzcA-8" target="FfkFVL6gK5WUMpAvYzcA-3">
          <mxGeometry x="0.1868" width="50" height="50" relative="1" as="geometry">
            <mxPoint x="530" y="270" as="sourcePoint" />
            <mxPoint x="630" y="290" as="targetPoint" />
            <Array as="points">
              <mxPoint x="534" y="340" />
            </Array>
            <mxPoint as="offset" />
          </mxGeometry>
        </mxCell>
        <mxCell id="FfkFVL6gK5WUMpAvYzcA-23" value="&#xa;&lt;span style=&quot;color: rgb(0, 0, 0); font-family: &amp;quot;Times New Roman&amp;quot;; font-size: 14px; font-style: normal; font-variant-ligatures: normal; font-variant-caps: normal; font-weight: 400; letter-spacing: normal; orphans: 2; text-align: center; text-indent: 0px; text-transform: none; widows: 2; word-spacing: 0px; -webkit-text-stroke-width: 0px; background-color: rgb(255, 255, 255); text-decoration-thickness: initial; text-decoration-style: initial; text-decoration-color: initial; float: none; display: inline !important;&quot;&gt;data latih&lt;/span&gt;&#xa;&#xa;" style="endArrow=classic;html=1;rounded=0;exitX=0.4;exitY=1;exitDx=0;exitDy=0;exitPerimeter=0;entryX=0;entryY=0;entryDx=0;entryDy=0;fontFamily=Times New Roman;fontSize=14;" edge="1" parent="1" source="FfkFVL6gK5WUMpAvYzcA-6" target="FfkFVL6gK5WUMpAvYzcA-4">
          <mxGeometry x="0.2133" y="-8" width="50" height="50" relative="1" as="geometry">
            <mxPoint x="130" y="450" as="sourcePoint" />
            <mxPoint x="180" y="400" as="targetPoint" />
            <Array as="points">
              <mxPoint x="88" y="412" />
            </Array>
            <mxPoint as="offset" />
          </mxGeometry>
        </mxCell>
        <mxCell id="FfkFVL6gK5WUMpAvYzcA-24" value="data latih" style="endArrow=classic;html=1;rounded=0;exitX=0;exitY=1;exitDx=0;exitDy=0;entryX=0.25;entryY=1;entryDx=0;entryDy=0;fontFamily=Times New Roman;fontSize=14;" edge="1" parent="1" source="FfkFVL6gK5WUMpAvYzcA-4" target="FfkFVL6gK5WUMpAvYzcA-6">
          <mxGeometry x="-0.2128" y="1" width="50" height="50" relative="1" as="geometry">
            <mxPoint x="160" y="480" as="sourcePoint" />
            <mxPoint x="210" y="430" as="targetPoint" />
            <Array as="points">
              <mxPoint x="70" y="470" />
            </Array>
            <mxPoint as="offset" />
          </mxGeometry>
        </mxCell>
        <mxCell id="FfkFVL6gK5WUMpAvYzcA-25" value="data siswa&amp;nbsp; baru" style="endArrow=classic;html=1;rounded=0;entryX=0;entryY=0;entryDx=0;entryDy=0;exitX=-0.001;exitY=0.68;exitDx=0;exitDy=0;exitPerimeter=0;fontFamily=Times New Roman;fontSize=14;" edge="1" parent="1" source="FfkFVL6gK5WUMpAvYzcA-6" target="FfkFVL6gK5WUMpAvYzcA-5">
          <mxGeometry x="0.2669" y="-1" width="50" height="50" relative="1" as="geometry">
            <mxPoint x="40" y="260" as="sourcePoint" />
            <mxPoint x="60" y="310" as="targetPoint" />
            <Array as="points">
              <mxPoint x="30" y="264" />
              <mxPoint x="30" y="530" />
            </Array>
            <mxPoint as="offset" />
          </mxGeometry>
        </mxCell>
        <mxCell id="FfkFVL6gK5WUMpAvYzcA-26" value="data siswa&amp;nbsp; baru" style="endArrow=classic;html=1;rounded=0;entryX=0;entryY=0.25;entryDx=0;entryDy=0;exitX=0;exitY=1;exitDx=0;exitDy=0;fontFamily=Times New Roman;fontSize=14;" edge="1" parent="1" source="FfkFVL6gK5WUMpAvYzcA-5" target="FfkFVL6gK5WUMpAvYzcA-6">
          <mxGeometry x="-0.2648" width="50" height="50" relative="1" as="geometry">
            <mxPoint x="80" y="580.6976744186046" as="sourcePoint" />
            <mxPoint x="40" y="230" as="targetPoint" />
            <Array as="points">
              <mxPoint x="10" y="588" />
              <mxPoint x="10" y="255" />
            </Array>
            <mxPoint as="offset" />
          </mxGeometry>
        </mxCell>
        <mxCell id="FfkFVL6gK5WUMpAvYzcA-27" value="data latih" style="endArrow=classic;html=1;rounded=0;fontFamily=Times New Roman;fontSize=14;exitX=0.832;exitY=0.869;exitDx=0;exitDy=0;exitPerimeter=0;" edge="1" parent="1" source="FfkFVL6gK5WUMpAvYzcA-4">
          <mxGeometry x="-0.4605" width="50" height="50" relative="1" as="geometry">
            <mxPoint x="390" y="470" as="sourcePoint" />
            <mxPoint x="570" y="270" as="targetPoint" />
            <Array as="points">
              <mxPoint x="570" y="470" />
            </Array>
            <mxPoint as="offset" />
          </mxGeometry>
        </mxCell>
        <mxCell id="FfkFVL6gK5WUMpAvYzcA-28" value="data latih" style="endArrow=classic;html=1;rounded=0;fontFamily=Times New Roman;fontSize=14;exitX=0.825;exitY=1.05;exitDx=0;exitDy=0;exitPerimeter=0;entryX=0.5;entryY=1;entryDx=0;entryDy=0;" edge="1" parent="1" source="FfkFVL6gK5WUMpAvYzcA-8" target="FfkFVL6gK5WUMpAvYzcA-4">
          <mxGeometry x="0.4561" width="50" height="50" relative="1" as="geometry">
            <mxPoint x="680" y="330" as="sourcePoint" />
            <mxPoint x="360" y="500" as="targetPoint" />
            <Array as="points">
              <mxPoint x="589" y="500" />
              <mxPoint x="360" y="500" />
            </Array>
            <mxPoint as="offset" />
          </mxGeometry>
        </mxCell>
        <mxCell id="FfkFVL6gK5WUMpAvYzcA-31" value="data latih" style="endArrow=classic;html=1;rounded=0;fontFamily=Times New Roman;fontSize=14;entryX=1;entryY=0;entryDx=0;entryDy=0;exitX=1;exitY=0.75;exitDx=0;exitDy=0;" edge="1" parent="1" source="FfkFVL6gK5WUMpAvYzcA-8" target="FfkFVL6gK5WUMpAvYzcA-5">
          <mxGeometry x="0.5429" width="50" height="50" relative="1" as="geometry">
            <mxPoint x="620" y="260" as="sourcePoint" />
            <mxPoint x="700" y="460" as="targetPoint" />
            <Array as="points">
              <mxPoint x="620" y="265" />
              <mxPoint x="620" y="532" />
            </Array>
            <mxPoint as="offset" />
          </mxGeometry>
        </mxCell>
        <mxCell id="FfkFVL6gK5WUMpAvYzcA-32" value="data latih" style="endArrow=classic;html=1;rounded=0;fontFamily=Times New Roman;fontSize=14;entryX=1;entryY=0.25;entryDx=0;entryDy=0;exitX=1;exitY=1;exitDx=0;exitDy=0;" edge="1" parent="1" source="FfkFVL6gK5WUMpAvYzcA-5" target="FfkFVL6gK5WUMpAvYzcA-8">
          <mxGeometry x="-0.5728" y="-1" width="50" height="50" relative="1" as="geometry">
            <mxPoint x="620" y="350" as="sourcePoint" />
            <mxPoint x="670" y="300" as="targetPoint" />
            <Array as="points">
              <mxPoint x="640" y="590" />
              <mxPoint x="640" y="255" />
            </Array>
            <mxPoint as="offset" />
          </mxGeometry>
        </mxCell>
      </root>
    </mxGraphModel>
  </diagram>
</mxfile>
